<?xml version="1.0" encoding="utf-8"?>
<!-- Generator: Adobe Illustrator 21.0.1, SVG Export Plug-In . SVG Version: 6.00 Build 0)  -->
<svg version="1.1" id="Layer_1" xmlns="http://www.w3.org/2000/svg" xmlns:xlink="http://www.w3.org/1999/xlink" x="0px" y="0px"
	 viewBox="0 0 800 600" style="enable-background:new 0 0 800 600;" xml:space="preserve">
<style type="text/css">
	.st0{fill:#FFFFFF;stroke:#000000;stroke-miterlimit:10;}
	.st1{fill:#999999;stroke:#000000;stroke-miterlimit:10;}
</style>
<g id="background">
	
		<rect x="0" y="580" transform="matrix(-1 2.201499e-07 -2.201499e-07 -1 800.0001 1179.9999)" class="st0" width="800" height="20"/>
	
		<rect x="490" y="500" transform="matrix(-1 8.805997e-06 -8.805997e-06 -1 1000.0048 1079.9956)" class="st0" width="20" height="80"/>
	
		<rect x="290" y="500" transform="matrix(-1 8.805997e-06 -8.805997e-06 -1 600.0048 1079.9973)" class="st0" width="20" height="80"/>
	
		<rect x="250" y="490" transform="matrix(-1 5.870665e-07 -5.870665e-07 -1 800.0003 999.9998)" class="st0" width="300" height="20"/>
</g>
<g id="bricks">
	<rect x="233.5" y="450.5" class="st0" width="80" height="40"/>
	<rect x="200.5" y="410.5" class="st0" width="80" height="40"/>
	
		<rect x="370.5" y="311.5" transform="matrix(4.780290e-07 1 -1 4.780290e-07 741.9999 -79.0002)" class="st0" width="80" height="40"/>
	
		<rect x="490.5" y="430.5" transform="matrix(-1.836970e-16 1 -1 -1.836970e-16 980.9999 -80)" class="st0" width="80" height="40"/>
	
		<rect x="475.5" y="350.5" transform="matrix(-1.836970e-16 1 -1 -1.836970e-16 885.9999 -145)" class="st0" width="80" height="40"/>
	
		<rect x="475.5" y="290.5" transform="matrix(-1 4.403070e-06 -4.403070e-06 -1 1031.001 620.998)" class="st0" width="80" height="40"/>
	
		<rect x="377.5" y="450.5" transform="matrix(-1 4.403070e-06 -4.403070e-06 -1 835.0016 940.9984)" class="st0" width="80" height="40"/>
	
		<rect x="357.5" y="370.5" transform="matrix(-1 4.403070e-06 -4.403070e-06 -1 795.0013 780.9985)" class="st0" width="80" height="40"/>
	
		<rect id="special_1_" x="390.5" y="410.5" transform="matrix(-1 4.403070e-06 -4.403070e-06 -1 861.0015 860.9984)" class="st1" width="80" height="40"/>
	
		<rect x="359.5" y="230.5" transform="matrix(4.780291e-07 1 -1 4.780291e-07 649.9999 -149.0001)" class="st0" width="80" height="40"/>
	
		<rect x="359.3" y="170.1" transform="matrix(-1 -3.437536e-07 3.437536e-07 -1 798.6458 380.1511)" class="st0" width="80" height="40"/>
</g>
</svg>
