<?xml version="1.0" encoding="utf-8"?>
<!-- Generator: Adobe Illustrator 21.0.1, SVG Export Plug-In . SVG Version: 6.00 Build 0)  -->
<svg version="1.1" xmlns="http://www.w3.org/2000/svg" xmlns:xlink="http://www.w3.org/1999/xlink" x="0px" y="0px"
	 viewBox="0 0 800 600" style="enable-background:new 0 0 800 600;" xml:space="preserve">
<style type="text/css">
	.st0{fill:#FFFFFF;stroke:#000000;stroke-miterlimit:10;}
	.st1{fill:#999999;stroke:#000000;stroke-miterlimit:10;}
</style>
<g id="background">
	
		<rect x="0" y="580" transform="matrix(-1 2.201499e-07 -2.201499e-07 -1 800.0001 1179.9999)" class="st0" width="800" height="20"/>
	
		<rect x="490" y="500" transform="matrix(-1 8.805997e-06 -8.805997e-06 -1 1000.0048 1079.9956)" class="st0" width="20" height="80"/>
	
		<rect x="290" y="500" transform="matrix(-1 8.805997e-06 -8.805997e-06 -1 600.0048 1079.9973)" class="st0" width="20" height="80"/>
	
		<rect x="250" y="490" transform="matrix(-1 5.870665e-07 -5.870665e-07 -1 800.0003 999.9998)" class="st0" width="300" height="20"/>
</g>
<g id="bricks">
	<rect x="203.5" y="449.5" class="st0" width="80" height="40"/>
	<rect x="240.5" y="409.5" class="st0" width="80" height="40"/>
	
		<rect x="310.5" y="310.5" transform="matrix(4.780290e-07 1 -1 4.780290e-07 680.9999 -20.0002)" class="st0" width="80" height="40"/>
	
		<rect x="490.5" y="429.5" transform="matrix(-1.836970e-16 1 -1 -1.836970e-16 979.9999 -81)" class="st0" width="80" height="40"/>
	
		<rect x="475.5" y="349.5" transform="matrix(-1.836970e-16 1 -1 -1.836970e-16 884.9999 -146)" class="st0" width="80" height="40"/>
	
		<rect x="455.5" y="289.5" transform="matrix(-1 4.403070e-06 -4.403070e-06 -1 991.0009 618.998)" class="st0" width="80" height="40"/>
	
		<rect x="347.5" y="449.5" transform="matrix(-1 4.403070e-06 -4.403070e-06 -1 775.0016 938.9985)" class="st0" width="80" height="40"/>
	
		<rect x="297.5" y="369.5" transform="matrix(-1 4.403070e-06 -4.403070e-06 -1 675.0013 778.9988)" class="st0" width="80" height="40"/>
	
		<rect id="special" x="360.5" y="409.5" transform="matrix(-1 4.403070e-06 -4.403070e-06 -1 801.0015 858.9985)" class="st1" width="80" height="40"/>
</g>
</svg>
