<?xml version="1.0" encoding="utf-8"?>
<!-- Generator: Adobe Illustrator 16.0.5, SVG Export Plug-In . SVG Version: 6.00 Build 0)  -->
<!DOCTYPE svg PUBLIC "-//W3C//DTD SVG 1.1//EN" "http://www.w3.org/Graphics/SVG/1.1/DTD/svg11.dtd">
<svg version="1.1" id="Layer_1" xmlns="http://www.w3.org/2000/svg" xmlns:xlink="http://www.w3.org/1999/xlink" x="0px" y="0px"
	 width="800px" height="600px" viewBox="0 0 800 600" enable-background="new 0 0 800 600" xml:space="preserve">
<g id="background">
	<rect y="580" fill="#FFFFFF" stroke="#010101" stroke-miterlimit="10" width="800" height="20"/>
	<rect x="490" y="500" fill="#FFFFFF" stroke="#010101" stroke-miterlimit="10" width="20" height="80"/>
	<rect x="290" y="500" fill="#FFFFFF" stroke="#010101" stroke-miterlimit="10" width="20" height="80"/>
	<rect x="250" y="490" fill="#FFFFFF" stroke="#010101" stroke-miterlimit="10" width="300" height="20"/>
</g>
<g id="bricks">
	<rect id="special_1_" x="413.9" y="448.1" fill="#989898" stroke="#010101" stroke-miterlimit="10" width="80" height="40"/>
	<rect x="500.3" y="324.8" fill="#FFFFFF" stroke="#010101" stroke-miterlimit="10" width="80" height="40"/>
	<rect x="238.5" y="365.7" fill="#FFFFFF" stroke="#010101" stroke-miterlimit="10" width="80" height="40"/>
	<rect x="208.2" y="242" fill="#FFFFFF" stroke="#010101" stroke-miterlimit="10" width="80" height="40"/>
	
		<rect x="245.212" y="304.111" transform="matrix(-7.323822e-05 1 -1 -7.323822e-05 609.3436 38.9227)" fill="#FFFFFF" stroke="#010101" stroke-miterlimit="10" width="80" height="40"/>
	
		<rect x="201.212" y="304.111" transform="matrix(-7.323822e-05 1 -1 -7.323822e-05 565.3405 82.9227)" fill="#FFFFFF" stroke="#010101" stroke-miterlimit="10" width="80" height="40"/>
	
		<rect x="414.906" y="386.5" transform="matrix(-7.323822e-05 1 -1 -7.323822e-05 861.4401 -48.376)" fill="#FFFFFF" stroke="#010101" stroke-miterlimit="10" width="80" height="40"/>
	
		<rect x="438.23" y="222.648" transform="matrix(-7.323822e-05 1 -1 -7.323822e-05 720.9139 -235.5643)" fill="#FFFFFF" stroke="#010101" stroke-miterlimit="10" width="80" height="40"/>
	
		<rect x="433.765" y="304.541" transform="matrix(-7.323822e-05 1 -1 -7.323822e-05 798.3398 -149.2003)" fill="#FFFFFF" stroke="#010101" stroke-miterlimit="10" width="80" height="40"/>
	
		<rect x="500.98" y="386.723" transform="matrix(-7.323822e-05 1 -1 -7.323822e-05 947.7432 -134.2275)" fill="#FFFFFF" stroke="#010101" stroke-miterlimit="10" width="80" height="40"/>
	
		<rect x="211.192" y="427.737" transform="matrix(-7.323822e-05 1 -1 -7.323822e-05 698.9476 196.5772)" fill="#FFFFFF" stroke="#010101" stroke-miterlimit="10" width="80" height="40"/>
	<rect x="500" y="448.1" fill="#FFFFFF" stroke="#010101" stroke-miterlimit="10" width="80" height="40"/>
	
		<rect x="503.01" y="263.496" transform="matrix(-7.323822e-05 1 -1 -7.323822e-05 826.5454 -259.4932)" fill="#FFFFFF" stroke="#010101" stroke-miterlimit="10" width="80" height="40"/>
	
		<rect x="456.979" y="386.721" transform="matrix(-7.323822e-05 1 -1 -7.323822e-05 903.7361 -90.2275)" fill="#FFFFFF" stroke="#010101" stroke-miterlimit="10" width="80" height="40"/>
	
		<rect x="274.003" y="428.103" transform="matrix(-7.323822e-05 1 -1 -7.323822e-05 762.129 134.1329)" fill="#FFFFFF" stroke="#010101" stroke-miterlimit="10" width="80" height="40"/>
	
		<rect x="208.257" y="179.672" transform="matrix(-7.323822e-05 1 -1 -7.323822e-05 447.9469 -48.5703)" fill="#FFFFFF" stroke="#010101" stroke-miterlimit="10" width="80" height="40"/>
</g>
</svg>
