<?xml version="1.0" encoding="utf-8"?>
<!-- Generator: Adobe Illustrator 16.0.5, SVG Export Plug-In . SVG Version: 6.00 Build 0)  -->
<!DOCTYPE svg PUBLIC "-//W3C//DTD SVG 1.1//EN" "http://www.w3.org/Graphics/SVG/1.1/DTD/svg11.dtd">
<svg version="1.1" id="Layer_1" xmlns="http://www.w3.org/2000/svg" xmlns:xlink="http://www.w3.org/1999/xlink" x="0px" y="0px"
	 width="800px" height="600px" viewBox="0 0 800 600" style="enable-background:new 0 0 800 600;" xml:space="preserve">
<style type="text/css">
<![CDATA[
	.st0{fill:#989898;stroke:#010101;stroke-miterlimit:10;}
	.st1{fill:#FFFFFF;stroke:#010101;stroke-miterlimit:10;}
]]>
</style>
<g id="background">
	<rect y="580" class="st1" width="800" height="20"/>
	<rect x="490" y="500" class="st1" width="20" height="80"/>
	<rect x="290" y="500" class="st1" width="20" height="80"/>
	<rect x="250" y="490" class="st1" width="300" height="20"/>
</g>
<g id="bricks">
	<rect x="390.3" y="448.5" class="st1" width="80" height="40"/>
	<rect x="378" y="284.4" transform="matrix(0.7883 0.6153 -0.6153 0.7883 283.8333 -176.235)" class="st1" width="40" height="80"/>
	<rect x="280" y="328.5" class="st1" width="40" height="80"/>
	<rect id="special_1_" x="474.6" y="284.4" class="st0" width="80" height="40"/>
	
		<rect x="285.7" y="120.5" transform="matrix(0.9999 -1.704104e-02 1.704104e-02 0.9999 -2.6901 5.2322)" class="st1" width="40" height="80"/>
	<rect x="250" y="200.8" class="st1" width="80" height="40"/>
	
		<rect x="219.9" y="423.8" transform="matrix(-0.4174 0.9087 -0.9087 -0.4174 771.7172 392.8449)" class="st1" width="80" height="40"/>
	<rect x="280.5" y="448.5" class="st1" width="80" height="40"/>
	<rect x="518.3" y="408.5" class="st1" width="40" height="80"/>
	<rect x="531.7" y="326.3" class="st1" width="40" height="80"/>
	
		<rect x="429.4" y="223.1" transform="matrix(-3.247064e-02 0.9995 -0.9995 -3.247064e-02 726.9141 -177.5031)" class="st1" width="40" height="80"/>
	<rect x="265.7" y="244.4" class="st1" width="40" height="80"/>
	<rect x="459.3" y="368.5" class="st1" width="40" height="80"/>
	<rect x="363" y="368.5" class="st1" width="40" height="80"/>
	<rect x="320.5" y="368.5" class="st1" width="40" height="80"/>
	<rect x="427.3" y="326.3" class="st1" width="80" height="40"/>
</g>
</svg>
